Coordinates
version=1
nRows=16
nColumns=22
inDegrees=yes

Units are S.I. units (second, meters, Newtons, ...)
If the header above contains a line with 'inDegrees', this indicates whether rotational values are in degrees (yes) or radians (no).

endheader
time	pelvis_tilt	pelvis_list	pelvis_rotation	pelvis_tx	pelvis_ty	pelvis_tz	hip_flexion_r	hip_adduction_r	hip_rotation_r	knee_angle_r	ankle_angle_r	subtalar_angle_r	hip_flexion_l	hip_adduction_l	hip_rotation_l	knee_angle_l	ankle_angle_l	subtalar_angle_l	lumbar_extension	lumbar_bending	lumbar_rotation
      5.47000000	     -1.59821823	      0.37853836	   -488.83432591	      0.70964548	      0.93836929	      0.70561891	     11.29987337	     14.55749779	     -0.22939711	    -20.73112614	      9.17515159	     -9.87995423	     20.89760056	    -10.84356689	     -4.83381241	    -69.85729681	      3.21653034	      7.94846778	     -7.30004516	      2.89814798	      0.73172877
      5.48000000	     -1.59506169	      0.44550464	   -490.08686512	      0.70426634	      0.93893578	      0.71050628	     10.49949923	     14.77552188	      0.94175121	    -20.42249879	      9.32346942	     -9.81903108	     21.90345114	    -11.02665948	     -4.39365115	    -69.23362873	      3.85671782	      7.53325092	     -7.28249827	      2.87204091	      1.30313425
      5.49000000	     -1.57923027	      0.45795882	   -491.37699258	      0.69889734	      0.93951985	      0.71528790	      9.66658352	     14.92810751	      2.17513248	    -20.13452764	      9.45181062	     -9.72899190	     22.77263496	    -11.15024507	     -4.02541457	    -68.37549594	      4.35534227	      6.99866643	     -7.31344664	      2.79300008	      1.89581679
      5.50000000	     -1.55433147	      0.52637207	   -492.66861645	      0.69363592	      0.93990198	      0.71995624	      8.93026051	     15.08384433	      3.37584564	    -19.91038205	      9.60724392	     -9.66576792	     23.65278821	    -11.29169334	     -3.66827411	    -67.36678579	      4.88904639	      6.63313886	     -7.30351337	      2.75796634	      2.49815377
      5.51000000	     -1.52907154	      0.57444050	   -493.96483404	      0.68846178	      0.94023090	      0.72454909	      8.21223240	     15.20094972	      4.58621779	    -19.74459417	      9.78014892	     -9.59216089	     24.44825135	    -11.38820932	     -3.32967121	    -66.17627034	      5.36124871	      6.29896085	     -7.32220296	      2.71321684	      3.09024476
      5.52000000	     -1.49014212	      0.66241989	   -495.24722507	      0.68339982	      0.94039087	      0.72908759	      7.58575032	     15.31157254	      5.75454755	    -19.65388051	      9.99133334	     -9.53691439	     25.24124757	    -11.46557445	     -2.97238890	    -64.84300982	      5.83141824	      6.08294316	     -7.30480365	      2.70158581	      3.66067231
      5.53000000	     -1.46004842	      0.68932421	   -496.51534983	      0.67839592	      0.94060749	      0.73364702	      6.91522144	     15.35369404	      6.90591988	    -19.57713645	     10.20949438	     -9.42661363	     25.89524912	    -11.45317462	     -2.61134706	    -63.31755947	      6.20799719	      5.90336122	     -7.34361314	      2.65746689	      4.19457467
      5.54000000	     -1.40572074	      0.74826222	   -497.74765195	      0.67351344	      0.94067093	      0.73819594	      6.34162698	     15.37877835	      8.00340232	    -19.57277045	     10.44563613	     -9.33717840	     26.55410293	    -11.38784746	     -2.18591520	    -61.66500400	      6.56768139	      5.87297442	     -7.33982431	      2.63801846	      4.67885709
      5.55000000	     -1.33993792	      0.81861765	   -498.93439407	      0.66873242	      0.94061826	      0.74277096	      5.83254171	     15.38454518	      9.04589520	    -19.63094202	     10.73467625	     -9.27197308	     27.18715592	    -11.25916268	     -1.67800607	    -59.88949016	      6.91507183	      5.92621013	     -7.31613420	      2.63785997	      5.09791511
      5.56000000	     -1.30925381	      0.82932202	   -500.05900637	      0.66401074	      0.94063905	      0.74742976	      5.26300963	     15.34176880	     10.02927885	    -19.68878566	     11.01212769	     -9.13239918	     27.68277931	    -11.03441237	     -1.07043400	    -57.96227128	      7.24344353	      6.22174247	     -7.36267585	      2.62785403	      5.43811351
      5.57000000	     -1.26005436	      0.85623800	   -501.12521864	      0.65937670	      0.94053669	      0.75212341	      4.76676181	     15.28494436	     10.95117547	    -19.80290952	     11.31155785	     -9.03712902	     28.16298412	    -10.74761937	     -0.35231891	    -55.92719917	      7.54334917	      6.58242454	     -7.37817778	      2.63098993	      5.71570166
      5.58000000	     -1.22794352	      0.87188335	   -502.11537741	      0.65479175	      0.94039305	      0.75690501	      4.26677149	     15.21316267	     11.79543475	    -19.92736762	     11.65229652	     -8.95113480	     28.57248325	    -10.39964959	      0.49809744	    -53.78522593	      7.83156310	      7.08264720	     -7.40729022	      2.64757185	      5.91938327
      5.59000000	     -1.20689771	      0.87429592	   -503.04058326	      0.65022387	      0.94022544	      0.76176208	      3.75536179	     15.12156191	     12.57284399	    -20.04438926	     11.97258198	     -8.90394630	     28.90140399	    -10.00076162	      1.46271878	    -51.53097468	      8.06927784	      7.60410323	     -7.44579008	      2.66603680	      6.07761686
      5.60000000	     -1.20245883	      0.86891461	   -503.89269475	      0.64567459	      0.94001681	      0.76668842	      3.23696653	     15.02151234	     13.27913809	    -20.16438775	     12.29766394	     -8.88048116	     29.15356073	     -9.56643288	      2.55125446	    -49.18031541	      8.27660163	      8.16352832	     -7.49748358	      2.69401104	      6.16826632
      5.61000000	     -1.21481008	      0.87163108	   -504.67167787	      0.64111896	      0.93975236	      0.77169736	      2.69991222	     14.92134387	     13.90845420	    -20.24942712	     12.64301804	     -8.88336271	     29.34059670	     -9.12278226	      3.75931928	    -46.74706793	      8.44533970	      8.71291087	     -7.54746267	      2.74367041	      6.21814980
      5.62000000	     -1.23917432	      0.87162449	   -505.39294827	      0.63654029	      0.93944189	      0.77675087	      2.15292653	     14.81481746	     14.47668947	    -20.32636613	     12.97314169	     -8.90637231	     29.44824229	     -8.68076476	      5.05094605	    -44.22728498	      8.58323041	      9.18449415	     -7.60322024	      2.79800655	      6.22501178
